# xmcd CD database file
#
# Track frame offsets:
#	150
#	13967
#	29868
#	45542
#	61587
#	77344
#	91371
#	108130
#	123487
#	139763
#	154156
#	168890
#	186844
#	213499
#
# Disc length: 3059 seconds
#
# Revision: 1
# Processed by: cddbd v1.5.2PL0 Copyright (c) Steve Scherf et al.
# Submitted via: CDex 1.79
#
DISCID=b50bf10e
DTITLE=Waylon Thibodeaux - Who's Yo' Cher Be' Be'
DYEAR=2008
DGENRE=Cajun
TTITLE0=Sweet Colinda
TTITLE1=I Love My Baby And My Baby Loves Me
TTITLE2=Chenier Tigre
TTITLE3=Big Blue Tears
TTITLE4=Sometimes A Fiddle
TTITLE5=Giving Up The Ghost
TTITLE6=Riding On These Roses
TTITLE7=Hey Maman
TTITLE8=I Just Wanna Be Bayou
TTITLE9=My Dear Monique
TTITLE10=Cher Bebe'
TTITLE11=Some Kinda Voodoo
TTITLE12=Louisiana Rain
TTITLE13=Just To Have My Girl
EXTD=YEAR: 2008
EXTT0=
EXTT1=
EXTT2=
EXTT3=
EXTT4=
EXTT5=
EXTT6=
EXTT7=
EXTT8=
EXTT9=
EXTT10=
EXTT11=
EXTT12=
EXTT13=
PLAYORDER=
